<?xml version="1.0" standalone="no"?>
<!DOCTYPE svg PUBLIC "-//W3C//DTD SVG 20010904//EN"
 "http://www.w3.org/TR/2001/REC-SVG-20010904/DTD/svg10.dtd">
<svg version="1.0" xmlns="http://www.w3.org/2000/svg"
 width="225.000000pt" height="225.000000pt" viewBox="0 0 225.000000 225.000000"
 preserveAspectRatio="xMidYMid meet">
<metadata>
Created by potrace 1.15, written by Peter Selinger 2001-2017
</metadata>
<g transform="translate(0.000000,225.000000) scale(0.100000,-0.100000)"
fill="#000000" stroke="none">
<path d="M949 2045 c-146 -27 -283 -88 -410 -182 -34 -25 -64 -41 -68 -36 -45
54 -64 91 -70 136 l-7 52 -20 -33 c-10 -19 -27 -43 -38 -55 -31 -37 -57 -108
-69 -192 -9 -67 -18 -90 -52 -141 -38 -55 -93 -172 -110 -234 -6 -24 -5 -23
15 5 14 18 19 22 15 10 -15 -46 -35 -135 -45 -200 -12 -90 -11 -120 3 -75 10
33 11 29 18 -60 8 -110 20 -167 55 -265 125 -349 451 -615 826 -675 99 -16
341 -8 423 14 98 26 199 82 253 141 43 45 47 54 33 64 -13 9 -11 9 7 1 18 -9
30 -7 55 7 18 11 32 26 32 35 0 24 12 33 27 20 10 -7 21 -4 43 15 20 16 23 21
8 14 -12 -6 -25 -16 -28 -22 -4 -6 -11 -7 -18 -1 -7 6 -23 9 -37 7 -34 -3 -34
-3 -20 -20 7 -8 11 -15 9 -16 -2 0 -31 -2 -64 -5 -33 -3 -62 -9 -65 -13 -3 -5
-22 -14 -42 -21 -32 -12 -50 -11 -126 3 -90 18 -219 60 -236 77 -6 6 -18 10
-28 10 -10 0 -30 8 -44 17 -14 9 -39 24 -55 32 -17 9 -59 39 -94 66 -61 48
-63 50 -42 63 21 12 20 12 -8 7 -25 -4 -37 1 -68 31 -30 28 -35 39 -26 50 9
11 19 9 57 -10 75 -37 144 -49 253 -44 92 5 106 8 183 46 170 84 266 241 266
432 0 132 -47 251 -122 313 -24 20 -61 58 -82 86 -22 27 -44 47 -49 44 -6 -3
-7 -2 -4 4 7 11 -41 116 -55 121 -4 2 -6 8 -2 13 8 14 -16 80 -27 73 -5 -3 -8
-32 -7 -64 2 -32 6 -54 9 -48 8 12 19 -16 19 -48 0 -34 -19 -30 -26 6 -4 16
-16 36 -29 44 -13 9 -31 41 -44 80 -18 55 -21 78 -15 135 4 41 12 72 19 75 7
2 15 20 19 39 4 20 12 38 19 40 7 3 4 6 -5 6 -10 1 -18 5 -18 9 0 5 14 7 30 6
17 -1 30 2 30 6 0 4 -10 8 -22 9 -213 9 -260 9 -329 -4z m71 -175 c0 -5 -6
-10 -13 -10 -19 0 -117 -108 -134 -147 -15 -36 -10 -93 8 -93 6 0 8 -4 5 -8
-2 -4 3 -9 12 -10 131 -15 183 -23 206 -32 25 -9 28 -14 22 -42 -9 -43 -46
-80 -109 -107 -29 -13 -69 -31 -89 -42 -36 -19 -37 -19 -43 2 -4 11 -2 26 5
34 7 9 8 15 0 20 -5 3 -10 0 -10 -7 0 -9 -3 -9 -10 2 -13 20 -13 73 0 65 6 -3
10 3 10 14 0 12 -5 21 -11 21 -7 0 -9 12 -5 34 4 19 4 47 0 62 l-7 28 -9 -24
c-22 -60 -4 -210 32 -265 12 -19 10 -104 -4 -117 -7 -7 -11 -19 -8 -27 3 -8
-6 -6 -24 7 -45 32 -140 35 -229 7 -17 -5 -21 -2 -21 17 0 13 5 26 10 30 7 5
7 8 -1 8 -9 0 -13 18 -13 58 0 103 20 282 35 319 8 19 15 46 15 59 0 13 9 32
19 41 11 9 18 20 15 24 -2 4 10 4 27 -1 28 -8 38 -5 79 25 26 19 54 35 61 35
8 1 25 7 39 15 28 16 140 20 140 5z m-272 -780 c-2 -5 1 -10 6 -9 5 0 12 -3
15 -8 3 -5 30 -28 58 -50 69 -54 110 -61 207 -34 86 24 142 26 183 9 43 -18
93 -69 93 -94 0 -25 -28 -39 -58 -30 -10 4 -52 -11 -99 -33 -69 -33 -88 -39
-129 -35 -27 3 -60 9 -74 14 -14 4 -53 14 -87 20 -35 7 -63 17 -63 21 0 5 -8
9 -18 9 -31 0 -68 23 -80 49 -15 32 -15 39 3 57 8 9 15 29 15 45 0 16 5 29 10
29 6 0 10 7 10 16 0 9 -5 12 -12 8 -9 -5 -9 -2 1 9 15 19 22 22 19 7z"/>
</g>
</svg>
